<svg width="66" height="21" viewBox="0 0 66 21" fill="none" xmlns="http://www.w3.org/2000/svg">
<path d="M0.16 16V0.256H9.232V1.936H2.152V6.88H8.128V8.584H2.152V14.296H9.472V16H0.16ZM9.28225 16L13.0983 9.904L9.57025 4.336H11.7063L13.2663 6.904C13.4423 7.224 13.6263 7.552 13.8183 7.888C14.0103 8.208 14.2103 8.528 14.4183 8.848H14.5143C14.6903 8.528 14.8663 8.208 15.0423 7.888C15.2183 7.552 15.3943 7.224 15.5703 6.904L16.9863 4.336H19.0503L15.5223 10.12L19.3143 16H17.1783L15.4743 13.288C15.2663 12.936 15.0583 12.584 14.8503 12.232C14.6423 11.88 14.4263 11.536 14.2023 11.2H14.1063C13.8983 11.536 13.6983 11.88 13.5063 12.232C13.3143 12.568 13.1223 12.92 12.9303 13.288L11.3462 16H9.28225ZM20.6652 20.92V4.336H22.2972L22.4652 5.68H22.5372C23.0652 5.232 23.6412 4.848 24.2652 4.528C24.9052 4.208 25.5692 4.048 26.2572 4.048C27.0092 4.048 27.6732 4.192 28.2492 4.48C28.8252 4.752 29.3052 5.152 29.6892 5.68C30.0732 6.192 30.3612 6.816 30.5532 7.552C30.7612 8.272 30.8652 9.088 30.8652 10C30.8652 10.992 30.7292 11.88 30.4572 12.664C30.1852 13.432 29.8172 14.088 29.3532 14.632C28.8892 15.176 28.3532 15.592 27.7452 15.88C27.1372 16.152 26.4972 16.288 25.8252 16.288C25.2812 16.288 24.7372 16.168 24.1932 15.928C23.6652 15.688 23.1292 15.36 22.5852 14.944L22.6332 16.984V20.92H20.6652ZM25.4892 14.632C25.9692 14.632 26.4092 14.528 26.8092 14.32C27.2252 14.096 27.5772 13.792 27.8652 13.408C28.1692 13.008 28.4012 12.52 28.5612 11.944C28.7372 11.368 28.8252 10.72 28.8252 10C28.8252 9.36 28.7692 8.776 28.6572 8.248C28.5452 7.72 28.3612 7.272 28.1052 6.904C27.8652 6.52 27.5452 6.224 27.1452 6.016C26.7612 5.808 26.2972 5.704 25.7532 5.704C25.2572 5.704 24.7532 5.84 24.2412 6.112C23.7452 6.384 23.2092 6.776 22.6332 7.288V13.408C23.1612 13.856 23.6732 14.176 24.1692 14.368C24.6652 14.544 25.1052 14.632 25.4892 14.632ZM37.7457 16.288C36.9617 16.288 36.2257 16.152 35.5377 15.88C34.8657 15.592 34.2737 15.192 33.7617 14.68C33.2657 14.152 32.8737 13.512 32.5857 12.76C32.2977 12.008 32.1537 11.152 32.1537 10.192C32.1537 9.232 32.2977 8.376 32.5857 7.624C32.8897 6.856 33.2817 6.208 33.7617 5.68C34.2577 5.152 34.8177 4.752 35.4417 4.48C36.0657 4.192 36.7137 4.048 37.3857 4.048C38.1217 4.048 38.7777 4.176 39.3537 4.432C39.9457 4.688 40.4337 5.056 40.8177 5.536C41.2177 6.016 41.5217 6.592 41.7297 7.264C41.9377 7.936 42.0417 8.688 42.0417 9.52C42.0417 9.728 42.0337 9.936 42.0177 10.144C42.0177 10.336 42.0017 10.504 41.9697 10.648H34.0977C34.1777 11.896 34.5617 12.888 35.2497 13.624C35.9537 14.344 36.8657 14.704 37.9857 14.704C38.5457 14.704 39.0577 14.624 39.5217 14.464C40.0017 14.288 40.4577 14.064 40.8897 13.792L41.5857 15.088C41.0737 15.408 40.5057 15.688 39.8817 15.928C39.2577 16.168 38.5457 16.288 37.7457 16.288ZM34.0737 9.232H40.3137C40.3137 8.048 40.0577 7.152 39.5457 6.544C39.0497 5.92 38.3457 5.608 37.4337 5.608C37.0177 5.608 36.6177 5.688 36.2337 5.848C35.8657 6.008 35.5297 6.248 35.2257 6.568C34.9217 6.872 34.6657 7.248 34.4577 7.696C34.2657 8.144 34.1377 8.656 34.0737 9.232ZM43.9639 16V4.336H45.5959L45.7639 6.448H45.8359C46.2359 5.712 46.7159 5.128 47.2759 4.696C47.8519 4.264 48.4759 4.048 49.1479 4.048C49.6119 4.048 50.0279 4.128 50.3959 4.288L50.0119 6.016C49.8199 5.952 49.6439 5.904 49.4839 5.872C49.3239 5.84 49.1239 5.824 48.8839 5.824C48.3879 5.824 47.8679 6.024 47.3239 6.424C46.7959 6.824 46.3319 7.52 45.9319 8.512V16H43.9639ZM54.9963 16.288C54.3723 16.288 53.8443 16.192 53.4123 16C52.9963 15.808 52.6523 15.544 52.3803 15.208C52.1243 14.872 51.9403 14.464 51.8283 13.984C51.7163 13.504 51.6603 12.976 51.6603 12.4V5.944H49.9323V4.456L51.7563 4.336L51.9963 1.072H53.6523V4.336H56.7963V5.944H53.6523V12.424C53.6523 13.144 53.7803 13.704 54.0363 14.104C54.3083 14.488 54.7803 14.68 55.4523 14.68C55.6603 14.68 55.8843 14.648 56.1243 14.584C56.3643 14.52 56.5803 14.448 56.7723 14.368L57.1563 15.856C56.8363 15.968 56.4843 16.064 56.1003 16.144C55.7323 16.24 55.3643 16.288 54.9963 16.288ZM61.2873 16.288C60.4553 16.288 59.6633 16.136 58.9113 15.832C58.1593 15.528 57.5033 15.144 56.9433 14.68L57.9273 13.36C58.4393 13.776 58.9593 14.112 59.4873 14.368C60.0313 14.624 60.6553 14.752 61.3593 14.752C62.1273 14.752 62.7033 14.576 63.0873 14.224C63.4713 13.872 63.6633 13.44 63.6633 12.928C63.6633 12.624 63.5833 12.36 63.4233 12.136C63.2633 11.912 63.0553 11.72 62.7993 11.56C62.5593 11.384 62.2793 11.232 61.9593 11.104C61.6393 10.976 61.3193 10.848 60.9993 10.72C60.5833 10.576 60.1673 10.416 59.7513 10.24C59.3353 10.048 58.9593 9.824 58.6233 9.568C58.3033 9.296 58.0393 8.984 57.8313 8.632C57.6233 8.28 57.5193 7.856 57.5193 7.36C57.5193 6.896 57.6073 6.464 57.7833 6.064C57.9753 5.648 58.2393 5.296 58.5753 5.008C58.9273 4.704 59.3513 4.472 59.8473 4.312C60.3433 4.136 60.9033 4.048 61.5273 4.048C62.2633 4.048 62.9353 4.176 63.5433 4.432C64.1673 4.688 64.7033 5 65.1513 5.368L64.2153 6.616C63.8153 6.312 63.3993 6.064 62.9673 5.872C62.5353 5.68 62.0633 5.584 61.5513 5.584C60.8153 5.584 60.2713 5.752 59.9193 6.088C59.5833 6.424 59.4153 6.816 59.4153 7.264C59.4153 7.536 59.4873 7.776 59.6313 7.984C59.7753 8.176 59.9673 8.352 60.2073 8.512C60.4473 8.656 60.7193 8.792 61.0233 8.92C61.3433 9.032 61.6713 9.152 62.0073 9.28C62.4233 9.44 62.8393 9.608 63.2553 9.784C63.6873 9.96 64.0713 10.184 64.4073 10.456C64.7433 10.712 65.0153 11.032 65.2233 11.416C65.4473 11.8 65.5593 12.264 65.5593 12.808C65.5593 13.288 65.4633 13.736 65.2713 14.152C65.0953 14.568 64.8233 14.936 64.4553 15.256C64.1033 15.576 63.6553 15.824 63.1113 16C62.5833 16.192 61.9753 16.288 61.2873 16.288Z" fill="url(#paint0_linear)"/>
<defs>
<linearGradient id="paint0_linear" x1="-2" y1="9" x2="67" y2="9" gradientUnits="userSpaceOnUse">
<stop stop-color="#2FB1E2"/>
<stop offset="1" stop-color="#24A2EC"/>
</linearGradient>
</defs>
</svg>
